<?xml version="1.0" encoding="UTF-8" standalone="no"?>
<svg
   xmlns:svg="http://www.w3.org/2000/svg"
   xmlns="http://www.w3.org/2000/svg"
   xmlns:xlink="http://www.w3.org/1999/xlink"
   version="1.0"
   width="449"
   height="554"
   viewBox="-0.922 -0.343 449 554"
   id="svg2"
   xml:space="preserve">
	<defs
   id="defs4">
	</defs>
	<g
   id="g6">
		<rect
   width="438.18701"
   height="542.81299"
   x="4.9439998"
   y="4.9310002"
   style="fill:#0088ce"
   id="rect8" /> 
		<g
   id="g10">
			<defs
   id="defs12">
				<polyline
   id="XMLID_6_"
   points="0,0.018 0,552.681 448.049,552.681 448.049,0.018 0,0.018 " />
			</defs>
			<clipPath
   id="XMLID_9_">
				<use
   id="use16"
   x="0"
   y="0"
   width="449"
   height="554"
   xlink:href="#XMLID_6_" />
			</clipPath>
			<polyline
   clip-path="url(#XMLID_9_)"
   points="4.944,4.931 4.944,0 448.063,0 448.063,552.681 0.013,552.681      0.013,0 4.944,0 4.944,4.931 9.875,4.931 9.875,542.813 438.201,542.813 438.201,9.868 4.944,9.868 4.944,4.931 9.875,4.931      4.944,4.931 "
   id="polyline18"
   fill="#231F20"
   style="fill:#231f20" />
		</g>
		<path
   d="M 64.38,188.648 C 74.72,184.972 81.154,183.823 91.613,180.266 C 99.308,177.623 112.636,177.159 109.881,169.348 C 107.126,161.537 102.643,158.43 96.324,153.035 C 87.821,145.677 82.222,141.008 77.709,130.742 C 69.307,111.641 59.797,97.344 58.514,78.462 C 57.771,67.575 88.625,79.308 101.954,88.038 C 116.891,97.919 124.107,103.599 140.191,111.641 C 148.123,115.662 155.159,124.871 158.371,119.898 C 160.964,115.892 150.667,96.159 148.83,90.872 C 144.695,78.695 144.835,71.725 146.677,58.853 C 148.171,48.4 153.651,42.754 151.467,32.53 C 150.549,28.623 149.859,19.957 154.688,17.892 C 162.726,14.445 178.818,22.508 186.056,26.989 C 200.764,35.954 204.671,46.52 215.473,60.08 C 220.532,66.514 221.678,76.166 229.602,75.131 C 237.881,73.984 241.721,69.767 249.139,65.709 C 269.979,54.301 264.713,35.481 297.791,29.054 C 305.93,27.476 307.656,50.814 306.049,56.1 C 303.412,64.718 300.529,69.424 299.387,78.389 C 298.35,86.548 300.53,91.487 299.035,99.643 C 297.892,105.617 294.789,109.412 296.283,115.27 C 312.254,109.933 319.39,103.187 336.278,102.842 C 346.162,102.611 353.276,103.782 362.689,106.999 C 370.388,109.64 377.745,110.099 380.619,117.566 C 385.558,130.551 367.409,135.836 355.684,143.421 C 342.47,152.039 338.154,159.938 316.982,168.617 C 323.503,171.915 332.476,173.293 338.906,175.822 C 355.342,182.141 367.163,184.611 384.402,188.522 C 397.388,191.392 402.103,193.057 413.363,199.721 C 421.176,204.316 431.873,208.172 429.222,216.952 C 424.251,233.359 410.909,225.923 400.218,229.946 C 389.193,234.084 386.134,238.898 374.523,240.856 C 349.369,245.104 334.884,246.25 309.498,251.42 L 362.804,301.061 C 371.703,315.541 368.178,322.616 358.761,325.374 C 346.346,328.821 323.807,322.535 317.483,320.582 C 299.553,315.069 276.29,315.047 259.053,307.231 C 258.636,310.303 259.339,316.776 259.339,316.776 C 259.339,316.776 265.667,341.047 258.311,353.112 C 255.442,357.825 249.118,354.953 244.292,352.424 C 235.793,348.058 232.695,339.999 225,334.136 C 215.574,342.182 211.087,351.158 208.213,362.994 C 205.457,374.481 204.882,385.856 193.737,389.88 C 175.561,396.442 175.583,367.359 173.171,350.47 C 171.905,341.624 167.66,336.678 168.346,327.718 C 160.071,332.543 153.431,331.027 144.449,334.154 C 130.268,337.096 121.316,345.369 106.625,348.071 C 74.202,354.044 94.742,325.859 97.498,321.041 C 111.859,295.873 119.418,267.603 129.833,255.387 C 120.987,246.543 114.619,250.377 102.552,247.503 C 89.913,244.515 83.594,240.036 71.531,235.325 C 61.419,231.419 54.414,232.453 43.841,230.155 C 31.549,227.514 16.946,223.031 17.759,210.27 C 18.268,202.278 45.422,195.201 64.38,188.648"
   style="fill:#231f20"
   id="path20" />
		<path
   d="M 64.38,188.648 L 63.804,187.024 C 74.272,183.302 80.723,182.155 91.054,178.63 L 91.045,178.63 L 91.049,178.63 C 94.767,177.36 99.425,176.62 103.033,175.47 C 104.835,174.907 106.346,174.238 107.265,173.519 C 108.192,172.768 108.5,172.199 108.522,171.313 C 108.522,170.939 108.452,170.485 108.254,169.922 C 106.94,166.224 105.296,163.756 103.174,161.458 C 101.047,159.166 98.393,157.07 95.198,154.343 L 95.194,154.339 C 86.735,147.035 80.776,142.045 76.131,131.439 C 67.83,112.503 58.144,98.021 56.786,78.578 L 56.773,78.083 C 56.725,76.182 57.713,74.414 59.23,73.537 C 60.724,72.632 62.522,72.353 64.539,72.344 C 69.738,72.362 76.787,74.365 83.884,77.11 C 90.968,79.87 98.004,83.387 102.904,86.591 L 102.908,86.595 C 117.907,96.522 124.999,102.112 140.965,110.095 L 140.974,110.099 C 144.353,111.818 147.434,114.307 150.093,116.309 C 151.42,117.309 152.646,118.181 153.675,118.767 C 154.712,119.365 155.547,119.622 155.96,119.606 C 156.369,119.562 156.457,119.593 156.922,118.96 C 156.94,118.96 157.071,118.635 157.063,118.028 C 157.072,116.809 156.61,114.697 155.824,112.309 C 154.651,108.707 152.818,104.396 151.122,100.558 C 149.421,96.702 147.879,93.372 147.206,91.437 L 147.202,91.428 L 147.202,91.424 C 144.723,84.16 143.717,78.548 143.722,72.541 C 143.722,68.331 144.21,63.947 144.97,58.61 C 145.625,54.02 147.009,50.344 148.165,46.995 C 149.33,43.638 150.252,40.632 150.252,37.189 C 150.252,35.848 150.111,34.436 149.782,32.889 L 151.47,32.529 L 149.787,32.925 C 149.413,31.323 149.088,29.087 149.088,26.711 C 149.088,24.738 149.308,22.677 150.006,20.8 C 150.687,18.944 151.953,17.179 154.005,16.3 C 155.644,15.599 157.455,15.329 159.349,15.329 C 164.029,15.338 169.338,16.973 174.312,19.029 C 179.282,21.094 183.883,23.608 186.968,25.518 L 186.959,25.513 C 194.518,30.112 199.374,35.205 203.601,40.764 C 207.846,46.325 211.494,52.319 216.825,59.001 L 216.833,59.01 C 219.431,62.337 220.969,66.211 222.665,69.058 C 223.509,70.479 224.366,71.628 225.28,72.356 C 226.202,73.085 227.116,73.468 228.466,73.481 L 229.38,73.419 L 229.366,73.419 C 233.256,72.874 236.003,71.659 238.823,70.018 C 241.636,68.383 244.493,66.287 248.315,64.189 C 258.295,58.722 261.956,51.585 267.515,44.449 C 273.043,37.312 280.611,30.584 297.463,27.361 L 298.57,27.253 C 300.719,27.249 302.46,28.524 303.642,30.129 C 305.453,32.572 306.533,36.006 307.271,39.683 C 307.997,43.35 308.322,47.244 308.322,50.478 C 308.313,53.024 308.146,55.103 307.703,56.597 C 306.353,60.998 304.956,64.373 303.787,67.687 C 302.613,71.007 301.656,74.265 301.101,78.603 C 300.895,80.213 300.825,81.686 300.825,83.094 C 300.82,86.627 301.3,89.802 301.308,93.542 C 301.308,95.504 301.167,97.611 300.737,99.952 L 300.732,99.961 L 300.732,99.97 C 300.236,102.572 299.401,104.736 298.751,106.678 C 298.088,108.631 297.613,110.347 297.613,112.16 C 297.613,113.006 297.709,113.878 297.96,114.843 L 296.285,115.269 L 295.736,113.632 C 303.585,111.013 309.289,108.029 315.287,105.586 C 321.277,103.143 327.579,101.288 336.245,101.116 L 336.232,101.116 L 336.24,101.116 C 337.049,101.098 337.84,101.086 338.618,101.086 C 347.486,101.081 354.478,102.358 363.254,105.364 C 366.972,106.647 370.751,107.412 374.156,108.888 C 377.549,110.338 380.638,112.726 382.229,116.948 L 382.224,116.935 L 382.229,116.953 C 382.871,118.619 383.178,120.233 383.178,121.774 C 383.183,124.738 382.009,127.349 380.22,129.535 C 377.535,132.82 373.523,135.358 369.243,137.775 C 364.962,140.179 360.391,142.433 356.626,144.872 L 356.617,144.876 L 356.635,144.867 C 350.157,149.084 345.837,153.155 340.37,157.363 C 334.913,161.566 328.351,165.822 317.638,170.215 L 316.984,168.617 L 317.761,167.075 C 323.909,170.215 332.825,171.601 339.536,174.216 L 339.531,174.212 L 339.526,174.212 C 355.835,180.481 367.52,182.924 384.786,186.835 L 384.777,186.835 C 397.78,189.691 402.935,191.524 414.247,198.232 L 414.243,198.232 C 417.636,200.233 421.735,202.147 425.119,204.536 C 426.811,205.738 428.336,207.065 429.478,208.671 C 430.625,210.266 431.368,212.182 431.359,214.316 C 431.359,215.329 431.201,216.377 430.876,217.451 C 429.571,221.784 427.62,224.764 425.167,226.695 C 421.472,229.598 417.063,229.963 412.845,230.119 C 408.601,230.26 404.412,230.2 400.831,231.564 C 395.477,233.57 392.09,235.726 388.421,237.732 C 384.765,239.74 380.822,241.553 374.811,242.557 C 349.582,246.818 335.142,247.962 309.842,253.113 L 309.499,251.421 L 310.673,250.158 L 364.153,299.954 L 364.276,300.156 C 367.924,306.106 369.651,310.962 369.665,315.089 C 369.683,318.17 368.61,320.843 366.725,322.828 C 364.844,324.821 362.265,326.146 359.246,327.031 L 359.237,327.036 L 359.224,327.036 C 356.415,327.813 353.251,328.115 349.915,328.115 C 337.276,328.102 322.071,323.8 316.974,322.235 C 299.423,316.795 276.097,316.808 258.338,308.808 L 259.054,307.232 L 260.764,307.465 C 260.689,308.041 260.65,308.869 260.65,309.766 C 260.65,311.273 260.752,312.995 260.852,314.323 C 260.953,315.657 261.054,316.589 261.054,316.589 L 259.34,316.778 L 261.01,316.341 C 261.028,316.418 263.589,326.213 263.594,336.681 C 263.585,342.765 262.759,349.109 259.788,354.015 C 258.395,356.382 255.947,357.412 253.667,357.362 C 250.099,357.327 246.499,355.506 243.493,353.956 L 243.502,353.96 L 243.507,353.96 C 238.941,351.615 235.856,348.287 233.03,344.96 C 230.195,341.622 227.581,338.273 223.95,335.51 L 225.001,334.139 L 226.117,335.452 C 216.999,343.268 212.74,351.765 209.892,363.406 L 209.892,363.41 L 209.897,363.401 C 208.534,369.044 207.708,374.814 205.731,379.872 C 203.78,384.915 200.413,389.34 194.327,391.509 C 192.385,392.21 190.574,392.557 188.878,392.557 C 184.971,392.584 181.834,390.604 179.72,387.698 C 176.508,383.334 174.97,376.953 173.875,370.207 C 172.807,363.461 172.267,356.338 171.462,350.717 C 170.908,346.832 169.744,343.71 168.645,340.46 C 167.555,337.221 166.544,333.829 166.544,329.656 C 166.544,328.986 166.57,328.296 166.623,327.591 L 168.346,327.72 L 169.216,329.21 C 164.839,331.776 160.814,332.657 156.938,333.279 C 153.049,333.903 149.296,334.294 145.016,335.788 L 144.906,335.826 L 144.801,335.847 C 137.959,337.264 132.329,339.983 126.471,342.764 C 120.617,345.535 114.535,348.371 106.942,349.771 C 103.782,350.351 101.08,350.626 98.755,350.626 C 94.694,350.621 91.719,349.793 89.667,348.092 C 87.606,346.381 86.811,343.884 86.828,341.441 C 86.854,337.233 88.828,332.696 90.911,328.732 C 92.998,324.807 95.292,321.428 96.004,320.182 C 103.106,307.73 108.568,294.437 113.556,282.683 C 118.566,270.923 123.044,260.719 128.519,254.27 L 129.833,255.386 L 128.611,256.61 C 124.392,252.442 121.189,251.431 117.194,250.917 C 113.208,250.427 108.427,250.673 102.152,249.186 L 102.156,249.186 C 95.714,247.659 90.836,245.743 86.125,243.636 C 81.41,241.531 76.857,239.259 70.907,236.932 L 70.911,236.936 C 66.029,235.051 61.942,234.361 57.653,233.849 C 53.373,233.342 48.89,233.016 43.472,231.843 L 43.49,231.847 L 43.477,231.843 C 37.439,230.538 30.777,228.809 25.437,225.745 C 22.774,224.209 20.423,222.324 18.718,219.925 C 17.013,217.536 15.998,214.621 16.002,211.277 L 16.037,210.156 C 16.138,208.666 16.837,207.343 17.821,206.192 C 19.557,204.182 22.224,202.474 25.542,200.791 C 35.465,195.806 51.435,191.301 63.818,187.019 L 63.814,187.019 L 63.805,187.023 L 64.38,188.648 L 64.947,190.281 C 55.411,193.57 43.902,196.978 34.779,200.529 C 30.226,202.296 26.271,204.115 23.533,205.888 C 22.166,206.773 21.112,207.652 20.448,208.434 C 19.771,209.225 19.516,209.873 19.481,210.379 L 19.455,211.277 C 19.459,213.938 20.211,216.056 21.534,217.928 C 23.507,220.723 26.904,222.927 30.987,224.62 C 35.061,226.321 39.763,227.514 44.201,228.468 L 44.197,228.464 L 44.206,228.468 C 49.361,229.589 53.667,229.899 58.062,230.419 C 62.452,230.942 66.926,231.693 72.155,233.715 L 72.159,233.719 C 78.272,236.103 82.912,238.426 87.531,240.482 C 92.154,242.543 96.76,244.356 102.951,245.824 L 102.942,245.819 L 102.955,245.824 C 108.747,247.206 113.177,246.97 117.606,247.494 C 122.023,247.993 126.426,249.487 131.049,254.167 L 132.178,255.296 L 131.145,256.506 C 126.21,262.27 121.701,272.309 116.735,284.031 C 111.752,295.758 106.25,309.183 98.999,321.894 C 98.129,323.401 95.954,326.583 93.963,330.349 C 91.963,334.08 90.254,338.369 90.28,341.439 C 90.298,343.252 90.763,344.484 91.884,345.438 C 93.013,346.402 95.136,347.171 98.753,347.171 C 100.805,347.171 103.306,346.923 106.316,346.369 C 113.404,345.063 119.144,342.414 124.988,339.643 C 130.82,336.874 136.757,333.985 144.095,332.465 L 144.447,334.153 L 143.88,332.525 C 148.582,330.886 152.643,330.473 156.387,329.868 C 160.149,329.258 163.585,328.493 167.479,326.227 L 170.322,324.568 L 170.067,327.853 C 170.019,328.473 169.997,329.073 169.997,329.653 C 169.997,333.263 170.854,336.183 171.917,339.354 C 172.98,342.522 174.264,345.919 174.879,350.222 C 175.978,357.946 176.575,367.989 178.518,375.95 C 179.476,379.928 180.786,383.353 182.491,385.634 C 184.227,387.914 186.112,389.072 188.876,389.104 C 190.093,389.104 191.509,388.851 193.151,388.258 C 198.206,386.399 200.702,383.122 202.516,378.605 C 204.295,374.096 205.139,368.436 206.533,362.594 L 206.538,362.59 C 209.434,350.562 214.157,341.099 223.878,332.823 L 224.933,331.918 L 226.04,332.764 C 230.11,335.864 232.895,339.479 235.655,342.722 C 238.428,345.985 241.149,348.87 245.082,350.885 L 245.087,350.892 L 245.095,350.896 C 247.97,352.43 251.37,353.946 253.665,353.911 C 255.145,353.856 255.989,353.524 256.833,352.219 C 259.272,348.257 260.155,342.435 260.142,336.68 C 260.142,331.725 259.523,326.834 258.899,323.193 C 258.591,321.376 258.279,319.873 258.046,318.822 C 257.817,317.779 257.663,317.212 257.668,317.207 L 257.633,317.086 L 257.615,316.961 C 257.615,316.928 257.193,313.072 257.193,309.765 C 257.193,308.774 257.228,307.833 257.342,307 L 257.655,304.702 L 259.764,305.66 C 276.485,313.286 299.688,313.346 317.987,318.931 C 322.905,320.46 338.022,324.677 349.913,324.663 C 353.034,324.663 355.925,324.371 358.298,323.709 L 358.76,325.373 L 358.273,323.714 C 360.91,322.949 362.918,321.842 364.21,320.46 C 365.502,319.069 366.201,317.425 366.214,315.087 C 366.227,311.971 364.808,307.603 361.336,301.961 L 362.804,301.06 L 361.626,302.319 L 305.868,250.4 L 309.15,249.728 C 334.63,244.54 349.154,243.389 374.238,239.15 C 379.837,238.201 383.229,236.63 386.762,234.703 C 390.283,232.778 393.943,230.455 399.616,228.327 C 405.522,226.145 411.692,227.072 416.644,226.383 C 419.127,226.055 421.237,225.399 423.03,223.986 C 424.809,222.569 426.391,220.323 427.569,216.454 C 427.806,215.665 427.907,214.964 427.907,214.316 C 427.903,212.964 427.477,211.826 426.669,210.675 C 425.456,208.957 423.272,207.322 420.692,205.788 C 418.121,204.247 415.18,202.791 412.487,201.206 L 412.473,201.197 L 412.483,201.206 C 401.268,194.59 396.997,193.092 384.028,190.205 L 384.019,190.205 C 366.81,186.303 354.844,183.8 338.286,177.432 L 338.281,177.428 L 338.276,177.428 C 332.124,174.985 323.098,173.622 316.198,170.157 L 312.833,168.452 L 316.326,167.019 C 326.78,162.726 332.968,158.693 338.264,154.626 C 343.555,150.563 348.002,146.373 354.743,141.972 L 354.752,141.972 C 360.091,138.52 366.534,135.613 371.517,132.392 C 374.009,130.786 376.119,129.111 377.542,127.356 C 378.966,125.587 379.718,123.823 379.722,121.773 C 379.722,120.696 379.511,119.514 379.001,118.181 L 379.005,118.185 C 377.727,114.938 375.7,113.362 372.775,112.053 C 369.857,110.774 366.108,109.988 362.13,108.632 C 353.583,105.716 347.158,104.548 338.615,104.543 C 337.868,104.543 337.098,104.552 336.317,104.569 L 336.312,104.569 C 328.094,104.745 322.381,106.432 316.584,108.786 C 310.801,111.135 304.947,114.191 296.831,116.909 L 295.064,117.498 L 294.607,115.698 C 294.291,114.461 294.15,113.281 294.154,112.161 C 294.154,109.726 294.792,107.606 295.472,105.578 C 296.162,103.539 296.91,101.568 297.335,99.318 L 297.335,99.331 C 297.722,97.217 297.85,95.345 297.85,93.543 C 297.855,90.133 297.375,86.947 297.367,83.095 C 297.367,81.566 297.446,79.935 297.67,78.166 C 298.26,73.545 299.315,69.968 300.527,66.538 C 301.744,63.101 303.101,59.816 304.398,55.591 C 304.653,54.776 304.877,52.814 304.864,50.478 C 304.873,46.468 304.31,41.194 303.089,37.094 C 302.491,35.051 301.709,33.306 300.874,32.203 C 300.013,31.082 299.305,30.709 298.566,30.704 L 298.114,30.75 C 281.894,33.949 275.552,39.845 270.235,46.577 C 264.953,53.303 260.826,61.277 249.967,67.218 C 246.372,69.184 243.595,71.226 240.563,72.999 C 237.535,74.772 234.23,76.236 229.835,76.838 L 229.831,76.842 L 229.822,76.842 C 229.356,76.901 228.899,76.932 228.46,76.932 C 226.355,76.945 224.519,76.2 223.103,75.046 C 220.981,73.311 219.658,70.852 218.335,68.347 C 217.03,65.835 215.76,63.234 214.112,61.142 L 214.112,61.147 L 214.116,61.151 C 208.645,54.28 204.944,48.21 200.853,42.855 C 196.757,37.496 192.305,32.824 185.156,28.459 L 185.147,28.455 C 182.207,26.638 177.725,24.19 172.983,22.219 C 168.246,20.237 163.205,18.767 159.342,18.78 C 157.782,18.78 156.433,19.015 155.361,19.472 C 154.403,19.892 153.731,20.696 153.23,22.012 C 152.742,23.302 152.527,25.007 152.531,26.71 C 152.531,28.755 152.83,30.799 153.142,32.13 L 153.151,32.168 C 153.529,33.946 153.696,35.609 153.696,37.189 C 153.696,41.271 152.593,44.723 151.42,48.125 C 150.242,51.535 148.977,54.935 148.383,59.101 C 147.627,64.374 147.166,68.6 147.17,72.541 C 147.174,78.157 148.071,83.266 150.462,90.317 L 150.462,90.31 L 150.458,90.306 C 151.196,92.449 153.71,97.735 156.013,103.171 C 157.164,105.898 158.272,108.692 159.102,111.243 C 159.924,113.809 160.504,116.086 160.513,118.031 C 160.504,119.002 160.381,119.943 159.819,120.839 C 158.98,122.228 157.442,123.107 155.956,123.061 C 154.519,123.047 153.249,122.49 151.966,121.771 C 148.182,119.587 143.845,115.408 139.411,113.18 L 139.415,113.184 L 139.419,113.184 C 123.216,105.085 115.873,99.315 101.002,89.478 L 101.006,89.482 C 96.409,86.467 89.501,83.003 82.628,80.335 C 75.777,77.652 68.86,75.78 64.536,75.797 C 62.87,75.788 61.644,76.089 61.042,76.476 C 60.458,76.892 60.273,77.133 60.225,78.084 L 60.234,78.343 C 61.456,96.668 70.785,110.775 79.289,130.049 C 83.67,139.972 88.904,144.322 97.452,151.725 L 97.443,151.721 C 100.572,154.395 103.318,156.544 105.7,159.11 C 108.086,161.67 110.064,164.658 111.505,168.772 C 111.813,169.64 111.975,170.486 111.975,171.314 C 111.997,173.397 110.854,175.144 109.378,176.252 C 107.154,177.943 104.135,178.816 101.002,179.622 C 97.877,180.404 94.621,181.053 92.169,181.898 L 92.178,181.894 L 92.169,181.898 C 81.591,185.498 75.167,186.642 64.958,190.276 L 64.949,190.28 L 64.945,190.28 L 64.38,188.648"
   style="fill:#231f20"
   id="path22" />
		<path
   d="M 228.841,92.714 C 233.381,84.281 236.901,79.047 245.088,74.642 L 245.54,74.435 L 246.361,74.115 C 247.025,73.869 247.842,73.561 248.797,73.175 C 250.731,72.388 253.182,71.259 255.867,69.554 C 261.272,66.133 267.588,60.426 272.57,50.622 C 274.152,47.502 289.076,34.714 295.414,35.182 C 300.489,35.556 302.476,40.038 302.194,46.887 C 301.925,53.586 299.434,61.615 296.622,67.108 C 294.451,71.388 294.359,75.282 294.49,79.061 C 294.556,80.907 294.679,82.774 294.648,84.721 C 294.618,86.626 294.437,88.575 293.906,90.649 C 292.667,95.536 292.218,98.977 291.278,102.196 C 290.377,105.255 289.023,108.109 285.912,111.978 C 284.818,113.338 283.227,114.863 281.786,116.438 C 280.336,118.031 278.855,119.853 278.235,121.699 C 276.806,126.212 261.843,132.507 256.508,131.995 C 250.408,131.413 250.097,128.432 252.957,122.778 C 254.376,119.965 256.508,116.797 258.802,113.536 C 261.101,110.256 263.513,106.949 265.429,103.919 C 275.734,87.652 279.056,77.523 281.587,68.215 C 281.873,67.175 284.141,57.947 284.141,57.947 C 284.141,57.947 280.414,61.447 279.562,62.302 C 277.808,64.062 275.466,69.188 272.404,72.809 C 266.343,79.992 258.688,90.517 251.943,99.13 C 247.394,104.948 244.216,108.279 240.671,111.887 C 238.012,114.596 233.979,115.389 233.139,116.158 C 225.026,114.7 224.371,101.123 228.841,92.714 M 256.324,143.203 C 254.193,144.35 253.16,145.624 253.063,147.154 L 253.063,155.011 C 266.774,154.47 292.056,145.327 300.388,135.774 L 302.769,133.034 L 302.55,136.659 C 302.044,144.945 292.816,151.666 283.561,157.171 C 278.855,159.975 273.919,162.576 269.669,165.006 C 266.638,166.742 264.054,168.339 262.142,169.829 C 273.981,170.418 299.179,164.973 306.87,159.386 C 309.34,157.613 311.885,156.582 314.406,155.907 C 316.863,155.246 319.338,154.912 321.781,154.538 C 326.549,153.809 330.829,152.932 334.578,149.184 C 338.265,145.503 342.014,142.772 345.758,140.494 C 349.462,138.235 353.184,136.423 356.854,134.551 C 363.819,130.996 380.163,123.336 375.733,118.678 C 371.95,114.705 368.315,114.477 363.801,113.306 C 358.844,112.025 353.444,111.575 347.265,110.467 C 341.143,109.342 324.66,111.794 317.452,113.494 C 308.949,115.556 300.168,119.26 292.851,124.267 C 290.728,125.684 289.564,127.418 288.285,129.351 C 287.622,130.355 286.963,131.359 286.154,132.317 C 285.319,133.308 284.335,134.261 283.043,135.125 C 281.008,136.502 278.012,137.434 274.843,138.204 C 271.666,138.977 268.106,139.63 264.776,140.408 C 261.448,141.177 258.473,142.042 256.324,143.203 M 324.264,179.442 C 313.907,178.038 307.837,179.266 306.787,183.834 C 306.162,186.523 306.207,200.307 306.641,203.609 C 314.788,206.426 319.165,207.048 326.46,208.95 C 331.079,210.152 337.174,210.607 343.62,210.71 C 350.071,210.809 347.382,210.556 353.143,210.387 C 358.882,210.215 366.991,210.112 369.842,210.552 C 371.855,210.864 379.466,212.835 379.466,212.835 C 379.466,212.835 366.212,214.923 364.397,216.142 C 350.691,221.749 347.532,221.767 334.506,221.488 C 328.027,221.349 322.144,221.132 317.398,221.474 C 312.942,221.797 309.892,222.613 308.222,224.116 C 308.266,226.465 307.655,228.418 306.758,230.101 C 306.288,230.986 305.738,231.806 305.154,232.586 C 304.595,233.322 304.003,234.025 303.435,234.713 C 301.16,237.449 299.792,239.312 301.005,242.236 C 301.269,242.875 302.116,243.541 303.949,244.025 C 305.716,244.491 308.08,244.695 310.796,244.7 C 316.259,244.704 322.811,243.902 328.185,243.06 C 335.379,241.959 340.886,240.05 346.401,238.417 C 352.017,236.756 357.73,235.356 365.222,235.356 C 371.507,235.356 376.288,233.569 381.13,231.306 C 383.591,230.155 386.039,228.898 388.646,227.72 C 391.322,226.514 394.166,225.389 397.369,224.516 C 399.698,223.877 401.869,223.552 403.943,223.376 C 405.978,223.2 416.353,224.083 421.214,220.394 C 426.452,218.256 427.612,211.46 413.444,206.217 C 411.066,205.336 408.218,202.095 405.569,201.273 C 402.871,200.436 400.045,199.419 397.228,197.887 C 390.984,194.45 384.835,192.835 378.423,191.592 C 371.937,190.333 365.288,189.469 358.191,187.492 C 346.737,184.373 334.234,180.791 324.264,179.442 M 256.79,235.048 C 253.556,236.621 252.066,235.487 251.662,244.479 C 251.476,248.639 251.886,251.135 253.881,253.13 C 255.537,254.784 273.309,266.651 276.724,268.416 C 280.112,270.169 282.819,274.382 287.078,276.48 C 295.577,280.668 306.233,283.063 311.753,286.772 C 312.61,287.348 319.607,292.973 319.607,292.973 C 319.607,292.973 312.537,292.149 311.934,292.145 C 309.468,292.131 304.925,291.176 299.814,289.813 C 289.531,287.073 281.216,285.12 275.899,282.167 C 272.414,280.255 259.556,273.18 255.654,272.857 C 252.995,272.637 252.726,274.797 252.274,276.219 C 251.351,279.091 251.017,280.89 251.804,283.265 C 253.434,288.26 256.189,291.401 259.709,294.038 C 261.507,295.388 263.497,296.598 265.606,297.837 C 267.777,299.109 270.071,300.41 272.435,301.909 C 276.232,304.293 284.344,306.383 292.755,308.055 C 301.096,309.712 309.445,310.913 313.457,311.597 C 325.736,313.777 335.148,317.127 347.762,318.734 C 350.399,319.077 352.832,319.855 355.105,320.098 C 357.174,320.318 358.902,320.068 360.563,318.586 C 361.885,317.358 362.167,315.814 361.807,313.95 C 361.433,312.034 360.378,309.931 359.183,307.947 C 356.604,303.471 353.971,300.384 351.062,297.499 C 348.091,294.555 344.844,291.823 341.108,288.09 C 337.786,284.768 334.262,282.333 330.689,280.277 C 327.073,278.198 323.42,276.528 319.918,274.76 C 312.799,271.16 306.026,267.056 301.254,258.278 C 296.283,249.129 284.858,233.752 272.588,233.657 C 269.346,233.636 266.274,233.532 263.523,233.671 C 260.793,233.815 258.543,234.193 256.79,235.048 M 247.403,297.464 C 245.886,293.674 244.093,291.393 241.58,290.732 L 237.006,292.964 C 236.233,298.187 236.558,301.562 236.874,304.731 C 237.037,306.44 237.199,308.066 237.178,309.835 C 237.16,311.639 236.967,313.597 236.426,315.932 C 236.101,317.354 235.516,318.681 234.888,319.901 C 234.282,321.094 233.596,322.228 233.002,323.302 C 232.409,324.354 229.105,329.97 229.333,330.416 C 230.576,332.868 241.269,341.743 241.98,343.088 C 242.683,344.415 249.917,351.413 252.544,350.405 C 256.007,349.078 255.33,345.901 255.559,341.985 C 256.134,330.265 254.64,323.568 251.574,312.102 C 250.154,306.697 249.021,301.485 247.403,297.464 M 225.225,314.438 C 227.637,310.415 227.395,305.722 227.356,300.191 C 227.272,288.341 215.623,288.891 213.131,289.822 C 212.541,296.32 211.131,302.597 208.6,309.037 C 205.282,317.466 203.45,327.725 198.387,335.169 C 197.715,336.149 192.977,345.294 192.977,345.294 C 192.977,345.294 192.929,335.443 192.987,334.646 C 193.188,331.541 194.318,325.857 195.403,319.415 C 197.535,306.761 199.064,292.868 194.678,288.346 C 189.484,292.626 184.188,293.503 179.556,299.051 C 174.41,305.225 172.142,314.801 171.417,317.991 C 170.714,321.098 173.755,326.385 174.128,329.815 C 174.304,331.021 178.298,344.633 179.898,356.189 C 181.542,368.078 183.814,378.896 184.811,380.543 C 188.415,386.5 196.645,381.466 198.482,378.469 C 203.311,370.269 205.223,362.011 207.03,353.488 C 207.939,349.206 210.98,341.801 213.344,337.978 C 216.153,333.445 216.086,332.713 218.315,328.257 C 220.975,322.937 222.729,318.604 225.225,314.438 M 169.497,238.14 C 155.733,234.873 149.528,238.171 145.929,242.865 C 144.039,245.317 142.791,248.253 141.614,251.203 C 141.021,252.693 140.458,254.147 139.852,255.492 C 139.241,256.854 138.569,258.159 137.747,259.293 C 135.98,261.719 127.011,278.523 124.018,284.562 C 118.692,295.322 117.497,303.498 111.076,312.669 C 110.013,314.15 108.918,315.418 107.837,316.589 C 106.778,317.732 105.728,318.771 104.712,319.828 C 102.717,321.907 100.924,323.985 99.456,326.978 C 97.268,331.357 97.536,336.249 101.091,338.49 C 103.328,339.967 105.433,339.768 107.933,338.877 C 109.243,338.413 110.583,337.794 111.989,337.193 C 113.479,336.558 115.034,335.952 116.682,335.565 C 123.494,334.023 129.4,332.135 133.948,328.846 C 143.66,321.832 160.469,323.443 163.29,319.683 C 163.945,318.815 165.127,309.532 166.744,305.135 C 167.575,302.871 168.3,300.45 169.275,298.066 C 170.273,295.623 171.543,293.162 173.472,290.925 C 174.579,289.629 175.77,288.715 176.926,287.976 C 178.025,287.27 179.114,286.717 180.103,286.128 C 181.914,285.052 183.135,283.986 183.518,281.514 C 184.551,274.72 186.462,251.104 185.131,240.687 C 181.215,248.162 172.971,262.462 165.224,274.711 C 160.671,281.903 159.331,280.939 156.088,284.935 C 154.493,286.897 141.885,300.865 141.885,300.865 C 141.885,300.865 148.424,282.368 151.672,277.231 C 154.902,272.135 158.624,267.664 160.632,264.504 C 161.876,262.507 164.785,255.792 166.965,249.398 C 168.033,246.26 168.916,243.233 169.316,240.932 C 169.515,239.79 169.572,238.939 169.497,238.14 M 30.419,207.229 C 27.356,208.036 20.487,212.905 25.053,216.662 C 27.949,219.041 30.023,220.523 33.657,220.428 C 37.515,220.329 45.676,222.768 49.943,222.768 C 55.339,222.768 63.834,224.766 72.113,227.411 C 80.458,230.077 95.211,236.813 96.806,237.024 C 98.533,237.257 105.74,238.604 112.934,239.877 C 120.211,241.169 131.791,243.577 133.272,236.484 C 136.37,221.661 128.311,220.78 125.379,220.369 C 123.735,220.14 121.732,220.02 119.539,219.646 C 117.28,219.264 114.784,218.609 112.253,217.306 C 110.284,216.284 106.852,215.735 102.506,215.452 C 98.195,215.173 93.229,215.164 88.386,215.113 C 79.114,215.01 68.975,214.847 66.15,211.189 L 64.792,209.44 L 66.998,209.205 C 77.369,208.117 86.088,206.023 94.719,204.598 C 103.433,203.159 112.148,202.378 122.374,203.995 C 131.049,205.362 132.007,199.161 130.587,191.368 C 129.216,183.906 119.381,181.882 110.768,184.293 C 102.625,186.628 95.726,186.396 89.586,189.256 C 83.368,192.154 52.72,200.75 45.518,202.141 C 39.911,203.17 36.541,205.618 30.419,207.229 M 182.966,166.693 C 185.22,158.141 182.28,152.198 178,147.918 C 175.763,145.681 173.144,143.897 170.679,142.464 C 168.179,141.011 165.885,139.944 164.346,139.148 C 159.798,136.817 156.559,134.512 153.351,132.15 C 150.226,129.847 147.124,127.487 142.804,124.987 C 136.432,121.256 131.233,118.584 126.175,115.684 C 121.073,112.755 116.107,109.589 110.249,104.885 C 107.142,102.347 104.514,100.624 101.803,99.014 C 99.048,97.374 96.2,95.85 92.689,93.721 C 89.753,91.939 85.174,88.083 80.723,85.27 C 78.53,83.888 76.473,82.831 74.733,82.396 C 73.002,81.955 71.855,82.183 71.086,82.948 C 68.88,85.163 69.007,88.474 70.365,92.655 C 71.736,96.863 74.109,101.303 75.375,104.975 C 78.469,114.274 81.404,122.121 84.731,131.421 C 87.82,140.021 93.34,144.701 99.747,149.481 C 102.995,151.902 106.409,154.308 109.753,157.213 C 113.137,160.146 116.472,163.598 119.496,168.074 C 121.012,170.315 128.079,169.777 130.838,167.532 C 132.363,166.288 135.105,166.227 137.702,166.348 C 140.418,166.477 143.63,166.879 146.702,167.081 C 149.769,167.283 152.49,167.266 154.41,166.67 C 155.966,166.189 156.853,165.407 157.051,164.011 C 148.592,158.665 140.347,154.62 132.442,149.49 C 124.251,144.175 116.389,137.681 109.028,127.427 L 106.079,123.323 L 110.592,125.604 C 130.209,135.54 149.194,141.525 153.039,143.371 C 160.773,147.089 168.517,153.828 174.357,159.147 C 177.266,161.797 179.732,164.124 181.529,165.605 C 182.127,166.098 182.602,166.454 182.966,166.693 M 212.045,116.945 C 211.825,116.76 211.391,116.242 210.766,115.001 C 210.261,113.997 209.387,112.788 208.345,111.433 C 207.29,110.071 205.994,108.482 204.571,106.671 C 201.758,103.103 196.296,99.193 193.378,94.032 C 190.979,89.796 189.12,84.758 185.213,80.967 C 178.599,74.555 179.86,70.258 177.307,67.192 C 176.397,66.109 175.404,59.526 174.499,60.763 C 173.831,61.679 174.38,69.394 174.323,70.828 C 174.209,73.825 174.806,78.204 175.769,82.946 C 177.703,92.447 181.201,103.877 183.96,109.568 C 187.001,115.859 186.61,121.389 185.476,126.678 C 184.896,129.387 184.131,131.987 183.547,134.54 C 183.165,136.21 182.853,137.893 182.716,139.594 C 165.753,130.027 167.832,119.014 164.536,112.264 C 162.796,108.687 153.203,86.565 153.172,83.851 C 153.146,80.979 152.06,68.092 152.526,65.185 C 153.001,62.236 153.805,59.028 154.649,55.438 C 156.363,48.165 158.292,39.255 158.125,27.73 C 158.055,23.065 161.957,21.903 168.962,24.32 C 175.545,26.588 183.025,31.663 186.58,36.528 C 189.999,41.32 200.124,47.734 209.163,64.864 C 213.461,73.009 223.77,79.023 223.257,82.699 C 222.707,86.608 219.912,90.501 218.405,94.916 C 216.897,99.326 215.803,104.101 214.841,108.159 C 213.861,112.294 213.083,115.346 212.253,116.669 L 212.045,116.945"
   style="fill:#ffffff"
   id="path24" />
		<polyline
   points="243.721,123.313 243.721,176.63 296.891,176.63 296.891,227.443 243.712,227.443     243.712,281.633 192.898,281.633 192.902,227.443 138.577,227.443 138.577,176.625 192.902,176.63 192.902,123.313     243.721,123.313 "
   id="polyline26"
   fill="#EC1C24"
   style="fill:#ec1c24" />
		<path
   d="M 374.467,398.164 L 444.815,398.164 L 444.815,426.359 L 443.131,426.355 L 443.131,546.923 L 5.348,546.923 L 5.348,411.996 L 5.44,398.164 L 41.541,398.164 C 45.751,398.164 50.295,398.608 54.25,400.261 L 54.25,398.164 L 128.206,398.164 C 135.584,398.294 142.484,399.672 147.081,404.185 C 153.106,398.852 162.014,397.794 170.473,397.794 C 173.76,397.794 176.814,397.812 179.535,398.073 C 180.308,398.145 181.113,398.245 181.939,398.37 L 212.485,398.163 C 232.573,398.163 252.655,398.163 272.743,398.163 L 299.154,398.163 L 302.547,409.332 C 307.873,399.469 319.171,397.794 329.899,397.794 C 335.726,397.794 341.39,398.203 346.062,400.207 L 346.062,398.163 L 374.467,398.163"
   style="fill:#231f20"
   id="path28" />
		<path
   d="M 10.16,539.662 L 49.28,539.662 C 64.911,539.662 73.362,537.205 73.362,519.119 C 73.362,509.88 71.494,503.293 60.587,502.605 L 60.587,501.816 C 70.316,500.247 72.184,494.154 72.184,484.816 C 72.184,468.692 63.531,465.943 48.889,465.943 L 10.16,465.943 L 10.16,539.662 M 29.821,482.063 L 46.331,482.063 C 51.837,482.261 52.527,483.931 52.527,488.354 C 52.527,494.253 50.853,495.431 43.971,495.431 L 29.821,495.431 L 29.821,482.063 L 29.821,482.063 z M 29.821,509.094 L 45.057,509.094 C 51.442,509.094 53.705,509.979 53.705,516.074 C 53.705,522.066 51.051,523.543 44.661,523.543 L 29.821,523.543 L 29.821,509.094 z M 126.141,526.981 L 129.977,539.662 L 150.029,539.662 L 127.612,465.943 L 97.734,465.943 L 75.616,539.662 L 96.064,539.662 L 99.698,526.981 L 126.141,526.981 M 122.208,512.631 L 103.927,512.631 L 112.87,480.686 L 113.072,480.686 L 122.208,512.631 z M 210.916,465.943 L 183.986,513.808 L 183.986,539.662 L 164.325,539.662 L 164.325,513.808 L 138.178,465.943 L 160.691,465.943 L 173.861,494.347 L 174.547,494.347 L 188.113,465.943 L 210.916,465.943 M 235.274,482.063 L 235.274,495.53 L 266.726,495.53 L 266.726,509.193 L 235.274,509.193 L 235.274,523.544 L 269.486,523.544 L 269.486,539.663 L 215.613,539.663 L 215.613,465.944 L 268.796,465.944 L 268.796,482.063 L 235.274,482.063 M 301.236,503 L 301.236,483.043 L 316.472,483.043 C 322.958,483.043 324.632,484.91 324.632,491.498 C 324.632,499.853 324.922,503 316.472,503 L 301.236,503 M 281.575,539.662 L 301.236,539.662 L 301.236,520.1 L 316.472,520.1 C 322.368,520.1 324.724,523.835 324.531,529.339 L 324.531,539.662 L 344.188,539.662 L 344.188,524.821 C 344.188,516.465 338.98,512.04 330.917,511.748 L 330.917,510.961 C 344.879,507.716 344.879,500.539 344.879,488.255 C 344.879,469.872 336.525,466.236 319.522,465.943 L 281.576,465.943 L 281.576,539.662 L 281.575,539.662 z M 373.386,483.043 L 374.564,539.662 L 354.907,539.662 L 354.907,465.943 L 388.13,465.943 L 409.259,522.558 L 410.055,522.558 L 408.868,465.943 L 428.529,465.943 L 428.529,539.662 L 395.008,539.662 L 374.173,483.043 L 373.386,483.043 M 10.762,454.188 L 35.855,454.188 C 45.875,454.188 51.297,452.613 51.297,441.013 C 51.297,435.087 50.102,430.864 43.097,430.424 L 43.097,429.914 C 49.342,428.907 50.537,425.001 50.537,419.011 C 50.537,408.675 44.991,406.907 35.596,406.907 L 10.762,406.907 L 10.762,454.188 M 23.37,417.248 L 33.961,417.248 C 37.49,417.375 37.934,418.445 37.934,421.284 C 37.934,425.065 36.862,425.821 32.45,425.821 L 23.37,425.821 L 23.37,417.248 z M 23.37,434.582 L 33.139,434.582 C 37.239,434.582 38.689,435.153 38.689,439.056 C 38.689,442.904 36.988,443.853 32.888,443.853 L 23.37,443.853 L 23.37,434.582 z M 70.146,417.248 L 70.146,425.883 L 90.313,425.883 L 90.313,434.646 L 70.146,434.646 L 70.146,443.853 L 92.079,443.853 L 92.079,454.189 L 57.533,454.189 L 57.533,406.908 L 91.639,406.908 L 91.639,417.249 L 70.146,417.249 M 112.443,430.678 L 112.443,417.879 L 122.212,417.879 C 126.378,417.879 127.446,419.076 127.446,423.301 C 127.446,428.656 127.635,430.678 122.212,430.678 L 112.443,430.678 M 99.835,454.188 L 112.443,454.188 L 112.443,441.644 L 122.212,441.644 C 126,441.644 127.512,444.04 127.384,447.57 L 127.384,454.188 L 139.992,454.188 L 139.992,444.671 C 139.992,439.312 136.648,436.471 131.48,436.282 L 131.48,435.783 C 140.432,433.7 140.432,429.1 140.432,421.218 C 140.432,409.431 135.075,407.1 124.172,406.906 L 99.835,406.906 L 99.835,454.188 z M 188.407,421.601 L 175.61,421.601 C 175.36,416.804 171.259,416.871 167.48,416.871 C 158.401,416.871 158.15,419.643 158.023,427.27 L 158.023,434.96 C 158.023,443.345 160.923,444.226 167.48,444.226 C 173.909,444.226 175.61,442.778 175.61,436.221 L 166.913,436.221 L 166.913,427.463 L 188.407,427.463 L 188.407,435.716 C 188.407,451.668 184.373,454.567 167.48,454.567 C 152.6,454.567 145.037,452.042 145.037,436.729 L 145.037,424.5 C 145.037,408.862 153.611,406.53 167.48,406.53 C 179.71,406.529 188.407,406.598 188.407,421.601 M 241.172,443.345 L 240.729,443.345 L 232.282,406.907 L 219.169,406.907 L 210.284,443.345 L 209.845,443.345 L 203.032,406.907 L 190.235,406.907 L 200.448,454.188 L 218.479,454.188 L 225.348,424.555 L 225.853,424.555 L 232.282,454.188 L 250.503,454.188 L 260.966,406.907 L 248.292,406.907 L 241.172,443.345 M 291.529,446.059 L 274.579,446.059 L 272.241,454.189 L 259.133,454.189 L 273.319,406.908 L 292.479,406.908 L 306.853,454.189 L 293.995,454.189 L 291.529,446.059 M 283.152,416.367 L 283.025,416.367 L 277.281,436.853 L 289.01,436.853 L 283.152,416.367 z M 336.924,436.283 L 336.924,437.669 C 336.924,443.222 334.403,443.596 329.172,443.596 C 321.613,443.596 321.289,440.889 321.289,433.826 L 321.289,426.452 C 321.289,419.707 321.987,417.5 329.172,417.5 C 333.457,417.5 336.424,417.814 336.863,422.04 L 336.863,423.863 L 349.848,423.863 L 349.848,422.04 C 349.597,407.856 343.542,406.529 330.556,406.529 C 316.687,406.529 308.302,408.801 308.302,424.43 L 308.302,436.664 C 308.302,453.941 317.698,454.565 330.556,454.565 C 336.044,454.565 341.279,454.628 345.559,451.1 C 349.848,447.509 349.913,442.838 349.913,437.667 L 349.913,436.281 L 336.924,436.281 M 397.691,406.907 L 385.075,406.907 L 385.075,424.687 L 368.627,424.687 L 368.627,406.907 L 356.014,406.907 L 356.014,454.188 L 368.627,454.188 L 368.627,435.658 L 385.075,435.658 L 385.075,454.188 L 397.691,454.188 L 397.691,406.907 M 426.432,417.879 L 439.168,417.879 L 439.168,406.907 L 401.717,406.907 L 401.717,417.879 L 413.828,417.879 L 413.828,454.189 L 426.432,454.189 L 426.432,417.879"
   style="fill:#ffffff;fill-rule:evenodd"
   id="path30" />
	</g>
</svg>